<?xml version="1.0"?>
<svg xmlns="http://www.w3.org/2000/svg" viewBox="0 0 96 96" width="512" height="512"><g id="_04-360" data-name="04-360"><path d="M20,44A12.013,12.013,0,0,0,8,56h8a4,4,0,1,1,4,4,4,4,0,0,0,0,8,4,4,0,1,1-4,4H8a12,12,0,1,0,20.937-8A11.994,11.994,0,0,0,20,44Z" fill="#02b2ee"/><path d="M48,52a4,4,0,0,1,4,4h8a12.01,12.01,0,0,0-8-11.3V34.472l16-8V40h8V20a4.113,4.113,0,0,0-2.211-3.578l-24-12a4,4,0,0,0-3.578,0l-24,12A4.011,4.011,0,0,0,20,20V40h8V26.472l16,8V44.7A12.01,12.01,0,0,0,36,56V72a12.047,12.047,0,1,0,8-11.3V56A4,4,0,0,1,48,52ZM32.944,20,48,12.472,63.056,20,48,27.528ZM48,68a4,4,0,1,1-4,4A4,4,0,0,1,48,68Z" fill="#02b2ee"/><path d="M88,72V56a12,12,0,0,0-24,0V72a12,12,0,0,0,24,0Zm-8,0a4,4,0,0,1-8,0V56a4,4,0,0,1,8,0Z" fill="#02b2ee"/><path d="M92,0H80V8h8v8h8V4A4,4,0,0,0,92,0Z" fill="#02b2ee"/><path d="M8,8h8V0H4A4,4,0,0,0,0,4V16H8Z" fill="#02b2ee"/><path d="M88,88H80v8H92a4,4,0,0,0,4-4V80H88Z" fill="#02b2ee"/><path d="M8,80H0V92a4,4,0,0,0,4,4H16V88H8Z" fill="#02b2ee"/></g></svg>
