<?xml version="1.0"?>
<svg xmlns="http://www.w3.org/2000/svg" xmlns:xlink="http://www.w3.org/1999/xlink" xmlns:svgjs="http://svgjs.com/svgjs" version="1.1" width="512" height="512" x="0" y="0" viewBox="0 0 512 512" style="enable-background:new 0 0 512 512" xml:space="preserve" class=""><g><path xmlns="http://www.w3.org/2000/svg" d="m368 368v-164c0-78.816406-59.542969-144.777344-136-154.699219v-49.300781h-40v49.300781c-76.457031 9.921875-136 75.878907-136 154.699219v144c0 14.175781-3.734375 25.773438-10.800781 33.546875-6.214844 6.839844-14.929688 10.453125-25.199219 10.453125h-20v56h161.414062c-.914062 3.855469-1.414062 7.867188-1.414062 12 0 28.671875 23.328125 52 52 52s52-23.328125 52-52c0-4.132812-.5-8.144531-1.414062-12h41.414062v-40h-228.792969c13.605469-15.214844 20.792969-35.949219 20.792969-60v-144c0-63.066406 51.261719-115.070312 114.300781-115.988281h3.398438c63.039062.917969 114.300781 52.921875 114.300781 115.988281v164zm-144 92c0 6.617188-5.382812 12-12 12s-12-5.382812-12-12 5.382812-12 12-12 12 5.382812 12 12zm288-12h-64v64h-40v-64h-64v-40h64v-64h40v64h64zm0 0" fill="#02a8e2" data-original="#000000" style="" class=""/></g></svg>
