<?xml version="1.0" encoding="utf-8"?>
<!-- Generator: Adobe Illustrator 26.3.1, SVG Export Plug-In . SVG Version: 6.00 Build 0)  -->
<svg version="1.1" id="Layer_1" xmlns="http://www.w3.org/2000/svg" xmlns:xlink="http://www.w3.org/1999/xlink" x="0px" y="0px"
	 viewBox="0 0 208.2 25.4" style="enable-background:new 0 0 208.2 25.4;" xml:space="preserve">
<style type="text/css">
	.st0{fill:#FFFFFF;}
</style>
<g id="Layer_2_00000171711491374766597950000016774471237280184759_">
	<g id="Layer_1-2">
		<path class="st0" d="M208.2,0h-18.4c-4.8-0.1-9.5,1-13.8,3.3c-3.7,2.1-6.5,5.3-8.2,9.2c-1,2.1-1.3,4.6-0.9,6.9
			c0.5,2.1,2,3.9,4,4.7c2,0.9,5.3,1.3,9.9,1.3h16.5l1.6-4h-9.3c-4.5,0-7.5-0.6-8.9-1.7c-1.6-1.2-1.4-4.1-0.2-7.2
			c2.2-5.3,6.9-8.6,13.2-8.6h7.2l-1.6,4h5.5L208.2,0z M144,15.3l11.1-10.8l2.3,10.8H144z M49.6,15.3L60.5,5l2,10.3L49.6,15.3z
			 M154.2,0L154.2,0h-6.8l-26,24.3l10.2-24.3h-11.1L107,10.6l-6.9,5.7h-0.3L103,8l-4-7.9H87.8L77.7,24.4L71.8,0.1H59.5L32.4,25.4
			h6.8l6.9-6.6h17.1l1.4,6.6h18.2l6.6-15.7C89.6,8.9,90,8,90.2,7c0.1,0.9,0.3,1.8,0.7,2.6l5.8,13.1h1l16.5-13c1-0.9,1.9-1.8,2.7-2.7
			c-0.6,1.2-1.1,2.1-1.3,2.7L109,25.4h24.6l6.8-6.7h17.7l1.4,6.7h6.2L159.8,0H154.2z M40.3,12.6c1.7-4,1.5-7.1-0.4-9.2
			s-5.6-3.3-11-3.3H10.6L9,4h12.5c6.4,0,8.3,3.2,6,8.5c-1.3,3.1-2.4,5.9-5.1,7.1c-2.4,1.1-5,1.5-9.4,1.5H7.3l4.3-10.3H6.2L0,25.4
			h16.5c3.7,0.1,7.4-0.3,11-1.3c3-1,5.7-2.6,7.9-4.7C37.5,17.6,39.2,15.2,40.3,12.6"/>
	</g>
</g>
</svg>
