<?xml version="1.0" encoding="UTF-8"?> <svg xmlns="http://www.w3.org/2000/svg" viewBox="0 0 208.2 25.44"> <title>Asset 1</title> <g id="Layer_2" data-name="Layer 2"> <g id="Layer_1-2" data-name="Layer 1"> <path d="M208.2,0H189.81a26.92,26.92,0,0,0-13.75,3.31,19,19,0,0,0-8.16,9.25,11.43,11.43,0,0,0-.9,6.89,6.62,6.62,0,0,0,4,4.68c2,.85,5.28,1.29,9.91,1.29h16.48l1.65-4h-9.29q-6.71,0-8.94-1.72c-1.62-1.25-1.44-4.14-.18-7.2,2.22-5.29,6.85-8.59,13.25-8.59h7.2l-1.65,4h5.46ZM144,15.28l11.09-10.8,2.31,10.8Zm-94.36,0L60.49,5l1.95,10.33ZM154.18,0V0h-6.77l-26,24.33L131.58.05H120.44L107,10.59l-6.92,5.7h-.32L103,8,99,.05H87.82L77.65,24.41,71.78.05H59.51L32.41,25.44h6.78l6.92-6.64H63.18l1.36,6.64H82.69l6.55-15.7a28.48,28.48,0,0,0,1-2.7,7.25,7.25,0,0,0,.65,2.61l5.77,13.09h1l16.5-13A33.9,33.9,0,0,0,116.9,7c-.64,1.18-1.08,2.08-1.34,2.7L109,25.44h24.61l6.84-6.67h17.74l1.42,6.67h6.23L159.77,0ZM40.28,12.6q2.49-6-.42-9.25t-11-3.3H10.65L9,4H21.55c6.4,0,8.26,3.19,6.05,8.47-1.28,3.06-2.41,5.87-5.07,7.12-2.44,1.15-5,1.48-9.44,1.48H7.29L11.62,10.8H6.15L0,25.44H16.51a37.8,37.8,0,0,0,11-1.28,21,21,0,0,0,7.93-4.68,20.08,20.08,0,0,0,4.85-6.88"></path> </g> </g> </svg> 