<svg xmlns="http://www.w3.org/2000/svg" viewBox="0 0 443.73 512"><defs><style>.cls-1{fill:#fff;}</style></defs><title>Quiz</title><g id="Layer_2" data-name="Layer 2"><g id="Layer_1-2" data-name="Layer 1"><path class="cls-1" d="M375.46,244.09V102.4c0-.19-.09-.34-.1-.53A8.6,8.6,0,0,0,373,96.38v0L279.1,2.5h0A8.41,8.41,0,0,0,276.64.84c-.25-.11-.51-.18-.77-.27A8.4,8.4,0,0,0,273.55.1c-.17,0-.31-.1-.49-.1H25.6A25.62,25.62,0,0,0,0,25.6V452.26a25.62,25.62,0,0,0,25.6,25.6H205.38A144.92,144.92,0,1,0,375.46,244.09Zm-93.86-215,64.73,64.74h-56.2a8.55,8.55,0,0,1-8.53-8.54ZM25.6,460.8a8.55,8.55,0,0,1-8.53-8.54V25.6a8.53,8.53,0,0,1,8.53-8.53H264.53V85.33a25.62,25.62,0,0,0,25.6,25.6H358.4v124a143,143,0,0,0-108.28-4.48H153.6a25.6,25.6,0,1,0,0,51.2h28a144.8,144.8,0,0,0-18.51,34.13h-9.5a25.6,25.6,0,0,0,0,51.2,144.33,144.33,0,0,0,34.66,93.87Zm191-213.34A146.44,146.44,0,0,0,196,264.53H153.6a8.53,8.53,0,0,1-8.53-8.53,8.32,8.32,0,0,1,2.6-6.08,8.16,8.16,0,0,1,5.93-2.45h63ZM157.82,332.8a145.36,145.36,0,0,0-3.13,17.06H153.6a8.53,8.53,0,0,1-8.53-8.53,8.28,8.28,0,0,1,2.6-6.07,8.17,8.17,0,0,1,5.93-2.46ZM298.66,494.93a128,128,0,1,1,128-128A128,128,0,0,1,298.66,494.93Z"/><path class="cls-1" d="M298.66,256A110.93,110.93,0,1,0,409.6,366.93,110.93,110.93,0,0,0,298.66,256Zm0,204.8a93.87,93.87,0,1,1,93.87-93.87A93.87,93.87,0,0,1,298.66,460.8Z"/><path class="cls-1" d="M307.2,363.4V298.66a8.54,8.54,0,0,0-17.07,0v68.27a8.53,8.53,0,0,0,2.5,6l42.67,42.67a8.53,8.53,0,0,0,12.06-12.07Z"/><path class="cls-1" d="M85.33,59.73H68.27a25.62,25.62,0,0,0-25.6,25.6V102.4A25.62,25.62,0,0,0,68.27,128H85.33a25.63,25.63,0,0,0,25.6-25.6V85.33A25.62,25.62,0,0,0,85.33,59.73Zm8.54,42.67a8.55,8.55,0,0,1-8.54,8.53H68.27a8.55,8.55,0,0,1-8.54-8.53V85.33a8.55,8.55,0,0,1,8.54-8.53H85.33a8.55,8.55,0,0,1,8.54,8.53Z"/><path class="cls-1" d="M153.6,110.93h68.26a25.6,25.6,0,0,0,0-51.2H153.6a25.6,25.6,0,1,0,0,51.2Zm0-34.13h68.26a8.54,8.54,0,1,1,0,17.07H153.6a8.54,8.54,0,0,1,0-17.07Z"/><path class="cls-1" d="M85.33,145.07H68.27a25.61,25.61,0,0,0-25.6,25.6v17.06a25.62,25.62,0,0,0,25.6,25.6H85.33a25.62,25.62,0,0,0,25.6-25.6V170.67A25.61,25.61,0,0,0,85.33,145.07Zm8.54,42.66a8.55,8.55,0,0,1-8.54,8.53H68.27a8.55,8.55,0,0,1-8.54-8.53V170.66a8.55,8.55,0,0,1,8.54-8.53H85.33a8.55,8.55,0,0,1,8.54,8.53Z"/><path class="cls-1" d="M153.6,196.27H315.73a25.6,25.6,0,0,0,0-51.2H153.6a25.6,25.6,0,1,0,0,51.2Zm0-34.14H315.73a8.54,8.54,0,0,1,0,17.07H153.6a8.54,8.54,0,0,1,0-17.07Z"/><path class="cls-1" d="M85.33,230.4H68.27A25.62,25.62,0,0,0,42.67,256v17.06a25.61,25.61,0,0,0,25.6,25.6H85.33a25.62,25.62,0,0,0,25.6-25.6V256A25.62,25.62,0,0,0,85.33,230.4Zm8.54,42.66a8.56,8.56,0,0,1-8.54,8.54H68.27a8.56,8.56,0,0,1-8.54-8.54V256a8.56,8.56,0,0,1,8.54-8.54H85.33A8.56,8.56,0,0,1,93.87,256Z"/><path class="cls-1" d="M85.33,315.73H68.27a25.62,25.62,0,0,0-25.6,25.6V358.4A25.62,25.62,0,0,0,68.27,384H85.33a25.63,25.63,0,0,0,25.6-25.6V341.33A25.62,25.62,0,0,0,85.33,315.73Zm8.54,42.67a8.55,8.55,0,0,1-8.54,8.53H68.27a8.55,8.55,0,0,1-8.54-8.53V341.33a8.55,8.55,0,0,1,8.54-8.53H85.33a8.55,8.55,0,0,1,8.54,8.53Z"/></g></g></svg>