<svg xmlns="http://www.w3.org/2000/svg" viewBox="0 0 247.76 247.76"><defs><style>.cls-1{fill:#fff;}</style></defs><title>Quiz</title><g id="Layer_2" data-name="Layer 2"><g id="Layer_1-2" data-name="Layer 1"><g id="Layer_2-2" data-name="Layer 2"><g id="Layer_1-2-2" data-name="Layer 1-2"><g id="surface1"><path class="cls-1" d="M123.87,247.76A123.88,123.88,0,1,0,0,123.87H0A123.87,123.87,0,0,0,123.86,247.76Zm0-231.23A107.36,107.36,0,1,1,16.51,123.89h0A107.36,107.36,0,0,1,123.87,16.53Z"/><path class="cls-1" d="M73.5,128.45l-14.78,7.38,16.51,33a8.25,8.25,0,0,0,6.07,4.46,9.08,9.08,0,0,0,1.28.11A8.23,8.23,0,0,0,88.42,171l99.09-99.1L175.84,60.24l-91,91Z"/></g></g></g></g></g></svg>