<svg id="Capa_1" enable-background="new 0 0 512 512" height="512" viewBox="0 0 512 512" width="512" xmlns="http://www.w3.org/2000/svg"><g><path d="m380.999 227.999v-18c0-8.284-6.716-15-15-15s-15 6.716-15 15v18c0 8.284 6.716 15 15 15s15-6.716 15-15z" fill="#02B2EE"/><path d="m330.999 227.999v-18c0-8.284-6.716-15-15-15s-15 6.716-15 15v18c0 8.284 6.716 15 15 15s15-6.716 15-15z" fill="#02B2EE"/><path d="m492.527 304.468c0-22.056-17.944-40-40-40h-6.746v-204.701c0-32.956-26.811-59.767-59.766-59.767s-59.767 26.811-59.767 59.767v24.251c-23.063 6.458-40.032 27.652-40.032 52.749v23.87c0 8.284 6.716 15 15 15h79.565c8.284 0 15-6.716 15-15v-23.87c0-24.916-16.725-45.984-39.533-52.607v-24.393c0-16.414 13.354-29.767 29.767-29.767s29.767 13.353 29.767 29.767v204.702h-128.18c.453-2.799.67-5.659.613-8.563-.501-25.334-21.829-45.945-47.543-45.945h-2.287c-6.595-23.743-28.41-41.223-54.217-41.223s-47.622 17.48-54.218 41.223h-2.287c-25.713 0-47.04 20.61-47.543 45.943-.058 2.904.159 5.765.613 8.564h-21.26c-22.056 0-40 17.944-40 40 0 13.398 6.629 25.27 16.771 32.533l14.51 76.215c6.975 36.63 35.796 64.524 71.378 71.235v12.549c0 8.284 6.716 15 15 15s15-6.716 15-15v-10.989h207.736v10.989c0 8.284 6.716 15 15 15s15-6.716 15-15v-12.55c35.582-6.711 64.403-34.605 71.378-71.235l14.51-76.214c10.143-7.262 16.771-19.134 16.771-32.533zm-126.746-167.701v8.87h-49.565v-8.87c0-13.665 11.118-24.783 24.783-24.783s24.782 11.118 24.782 24.783zm96.746 167.701c0 5.514-4.486 10-10 10h-215.118v-20h215.118c5.514 0 10 4.486 10 10zm-352.413-47.968c.181-9.12 8.054-16.539 17.549-16.539h15.245c8.279 0 14.992-6.708 15-14.986.013-14.467 11.793-26.237 26.26-26.237 14.466 0 26.246 11.77 26.259 26.237.008 8.279 6.721 14.986 15 14.986h15.245c9.496 0 17.368 7.419 17.549 16.539v.001c.056 2.819-.57 5.534-1.807 7.968h-34.005c-8.284 0-15 6.716-15 15v66.013c0 5.657-4.603 10.26-10.26 10.26-5.658 0-10.261-4.603-10.261-10.26v-66.013c0-8.284-6.716-15-15-15h-1-58.968c-1.235-2.434-1.861-5.15-1.806-7.969zm-50.641 37.968h97.416v20h-97.416c-5.514 0-10-4.486-10-10s4.486-10 10-10zm372.302 113.136c-5.341 28.049-29.94 48.407-58.493 48.407h-234.564c-28.553 0-53.152-20.358-58.493-48.406l-12.02-63.137h88.684v1.013c0 22.199 18.061 40.26 40.261 40.26 22.199 0 40.26-18.061 40.26-40.26v-1.013h206.386z" fill="#02B2EE"/></g></svg>