<svg id="Layer_1" enable-background="new 0 0 512 512" height="512" viewBox="0 0 512 512" width="512" xmlns="http://www.w3.org/2000/svg"><g fill="rgb(0,0,0)"><path d="m368.5 485.75v-165.785h-30.002v-122.346h-29.998v-97.166h-30.002v-45.633h-14.998v-43.57h-15v43.57h-15v77.871h-30v97.166h-30.002v122.336h-29.998v133.557h-84v15h393v-15zm-195.002 0h-14.998v-118.557h14.998zm30.002 0h-15.002v-27.836h15.002zm0-42.836h-15.002v-27.611h15.002zm0-42.611h-15.002v-27.611h15.002zm0-42.612h-15.002v-27.611h15.002zm0-42.611h-15.002v-27.611h15.002zm0-42.611h-15.002v-27.611h15.002zm119.998-59.85v25.782h-45v-25.782zm0 40.782v25.782h-45v-25.782zm-74.998-183.581h14.998v62.871h-14.998zm14.998 415.93h-24.498-20.5v-305.594h15v240.258h15v-255.258h-30v-17.465h59.998v-32.238h15.002v82.166h-30.002zm30.002 0h-15.002v-191.566h45v25.781h-29.998zm60 0h-45v-18.338h45zm0-33.338h-45v-18.111h45zm0-33.111h-45v-18.111h45zm0-33.112h-45v-18.111h45zm0-33.111h-45v-18.113h45z" fill="#fff"/><path d="m340.092 149.036h45v15h-45z" fill="#fff"/><path d="m400.092 149.036h15v15h-15z" fill="#fff"/><path d="m126.906 89.035h45v15h-45z" fill="#fff"/><path d="m96.906 89.035h15v15h-15z" fill="#fff"/><path d="m233.5 435.414h15v15h-15z" fill="#fff"/></g></svg>