<?xml version="1.0"?>
<svg xmlns="http://www.w3.org/2000/svg" viewBox="0 0 512 512" width="512" height="512"><g id="outline"><path d="M24,496H250.441a151.171,151.171,0,0,0,59.879-12.289l70.219-30.1A32.06,32.06,0,0,0,400,424.1c0-.035-.01-.067-.01-.1H424a8,8,0,0,0,8-8V192a8,8,0,0,0-8-8H88a8,8,0,0,0-8,8V352H24a8,8,0,0,0-8,8V488A8,8,0,0,0,24,496Zm350.238-57.094-70.218,30.1A135.282,135.282,0,0,1,250.441,480H96V363.414A73.4,73.4,0,0,1,145.941,344h6.278a73.691,73.691,0,0,1,27.461,5.289l25.347,10.141A8.063,8.063,0,0,0,208,360h48a16,16,0,0,1,0,32H208a8,8,0,0,0-2.3,15.664l75.387,22.609a23.74,23.74,0,0,0,13.805.008l74.144-22.242a16.1,16.1,0,0,1,5.2,30.867Zm9.762-158a38.978,38.978,0,0,0-6.387,1.782A40.137,40.137,0,0,0,352.9,312H304V232h48.852a39.039,39.039,0,0,0,1.839,6.391A40.115,40.115,0,0,0,384,263.109ZM288,344H240V287.8a39.2,39.2,0,0,0,48,0Zm128,32H304V360H416Zm-128,0v39.3a8.113,8.113,0,0,1-2.3-.346l-24.558-7.367A32.042,32.042,0,0,0,288,376a31.631,31.631,0,0,0-4.451-16H288Zm-24-96a24,24,0,1,1,24-24A24.027,24.027,0,0,1,264,280Zm-40,32H159.148a39.039,39.039,0,0,0-1.839-6.391A40.115,40.115,0,0,0,128,280.891V263.148a39,39,0,0,0,6.387-1.836A40.137,40.137,0,0,0,159.1,232H224Zm0,16v16H209.539l-23.918-9.57a89.658,89.658,0,0,0-33.4-6.43Zm192,80H395.507A32,32,0,0,0,367.9,392a8.036,8.036,0,0,0-2.981.57L304,410.846V392H416Zm0-64H304V328h56.078a8,8,0,0,0,8-8A23.686,23.686,0,0,1,392,296.078a8,8,0,0,0,8-8c0-.014-.008-.025-.008-.039s.008-.025.008-.039V255.922a8,8,0,0,0-8-8A23.706,23.706,0,0,1,368.078,224a8,8,0,0,0-8-8H304V200H416ZM288,200v24.205a39.2,39.2,0,0,0-48,0V200Zm-64,0v16H151.922a8,8,0,0,0-8,8A23.686,23.686,0,0,1,120,247.922a8,8,0,0,0-8,8v32.156a8,8,0,0,0,8,8A23.706,23.706,0,0,1,143.922,320a8,8,0,0,0,8,8h-5.981A89.313,89.313,0,0,0,96,343.113V200ZM32,368H80V480H32Z" fill="#fff"/><rect x="48" y="288" width="16" height="16" fill="#fff"/><rect x="48" y="256" width="16" height="16" fill="#fff"/><rect x="48" y="208" width="16" height="32" fill="#fff"/><path d="M224,168h64a8,8,0,0,0,8-8V96h16a8,8,0,0,0,6.02-13.266l-56-64a8.241,8.241,0,0,0-12.04,0l-56,64A8,8,0,0,0,200,96h16v64A8,8,0,0,0,224,168ZM256,36.148,294.371,80H288a8,8,0,0,0-8,8v64H232V88a8,8,0,0,0-8-8h-6.371Z"  fill="#fff"/><path d="M352,168h64a8,8,0,0,0,8-8V128h16a8,8,0,0,0,6.02-13.266l-56-64a8.241,8.241,0,0,0-12.04,0l-56,64A8,8,0,0,0,328,128h16v32A8,8,0,0,0,352,168Zm32-99.852L422.371,112H416a8,8,0,0,0-8,8v32H360V120a8,8,0,0,0-8-8h-6.371Z" fill="#fff"/><path d="M96,168h64a8,8,0,0,0,8-8V128h16a8,8,0,0,0,6.02-13.266l-56-64a8.241,8.241,0,0,0-12.04,0l-56,64A8,8,0,0,0,72,128H88v32A8,8,0,0,0,96,168Zm32-99.852L166.371,112H160a8,8,0,0,0-8,8v32H104V120a8,8,0,0,0-8-8H89.629Z" fill="#fff"/></g></svg>
