<?xml version="1.0" encoding="utf-8"?>
<!-- Generator: Adobe Illustrator 24.0.2, SVG Export Plug-In . SVG Version: 6.00 Build 0)  -->
<svg version="1.1" id="Layer_1" xmlns="http://www.w3.org/2000/svg" xmlns:xlink="http://www.w3.org/1999/xlink" x="0px" y="0px"
	 viewBox="0 0 27 27" style="enable-background:new 0 0 27 27;" xml:space="preserve">
<style type="text/css">
	.st0{fill-rule:evenodd;clip-rule:evenodd;fill:#02B2EE;}
</style>
<path class="st0" d="M21.8,8.3c0,2.7-2.9,8-5.1,11.8c2.7,0.2,8.8,0.9,8.8,3.4c0,2.4-6.2,3.5-12,3.5c-5.8,0-12-1.1-12-3.5
	c0-2.4,6.1-3.2,8.8-3.4C8,16.4,5.2,11.1,5.2,8.3C5.2,3.7,8.9,0,13.5,0S21.8,3.7,21.8,8.3z M13.5,1.1c-3.9,0-7.2,3.2-7.2,7.2
	c0,3.5,5.5,12.2,7.2,14.7c1.7-2.6,7.2-11.3,7.2-14.7C20.7,4.4,17.4,1.1,13.5,1.1z M13.5,25.8c-7,0-10.9-1.5-10.9-2.3
	c0-0.6,2.5-1.9,8.3-2.3c1.1,1.8,1.9,3,2,3.2c0.1,0.2,0.6,0.4,1,0c0.1-0.1,0.9-1.4,2-3.2c5.8,0.3,8.3,1.6,8.3,2.3
	C24.3,24.3,20.5,25.8,13.5,25.8z M17.1,8.3c0-2-1.6-3.6-3.6-3.6c-2,0-3.6,1.6-3.6,3.6c0,2,1.6,3.6,3.6,3.6
	C15.5,12,17.1,10.3,17.1,8.3z M11,8.3c0-1.4,1.1-2.5,2.5-2.5S16,7,16,8.3s-1.1,2.5-2.5,2.5S11,9.7,11,8.3z"/>
</svg>
