<svg height="512pt" viewBox="0 0 512 512" width="512pt" xmlns="http://www.w3.org/2000/svg"><path d="m471.359375 365.742188h-321.488281v-325.101563c0-22.410156-18.226563-40.640625-40.636719-40.640625h-68.59375c-22.410156 0-40.640625 18.230469-40.640625 40.640625v439.109375c0 17.78125 14.46875 32.25 32.25 32.25h439.109375c22.410156 0 40.640625-18.230469 40.640625-40.640625v-64.976563c0-22.410156-18.230469-40.640624-40.640625-40.640624zm-430.71875-335.742188h68.59375c5.867187 0 10.636719 4.773438 10.636719 10.640625v333.75l-89.871094 87.039063v-105.117188h17.460938c8.285156 0 15-6.714844 15-15 0-8.28125-6.714844-15-15-15h-17.460938v-20h47.460938c8.285156 0 15-6.714844 15-15 0-8.28125-6.714844-15-15-15h-47.460938v-20h17.460938c8.285156 0 15-6.714844 15-15 0-8.28125-6.714844-15-15-15h-17.460938v-20h47.460938c8.285156 0 15-6.714844 15-15 0-8.28125-6.714844-15-15-15h-47.460938v-20h17.460938c8.285156 0 15-6.714844 15-15 0-8.28125-6.714844-15-15-15h-17.460938v-20h47.460938c8.285156 0 15-6.714844 15-15 0-8.28125-6.714844-15-15-15h-47.460938v-35.671875c0-5.867187 4.773438-10.640625 10.640625-10.640625zm441.359375 441.359375c0 5.867187-4.773438 10.640625-10.640625 10.640625h-34.820313v-17.460938c0-8.285156-6.714843-15-15-15-8.28125 0-15 6.714844-15 15v17.460938h-20v-47.460938c0-8.285156-6.714843-15-15-15-8.28125 0-15 6.714844-15 15v47.460938h-20v-17.460938c0-8.285156-6.714843-15-15-15-8.28125 0-15 6.714844-15 15v17.460938h-20v-47.460938c0-8.285156-6.714843-15-15-15-8.28125 0-15 6.714844-15 15v47.460938h-20v-17.460938c0-8.285156-6.714843-15-15-15-8.28125 0-15 6.714844-15 15v17.460938h-20v-47.460938c0-8.285156-6.714843-15-15-15-8.28125 0-15 6.714844-15 15v47.460938h-104.652343l89.058593-86.257812h330.414063c5.867187 0 10.640625 4.773437 10.640625 10.640624zm0 0" fill="#02B2EE"/><path d="m477.652344 137.203125c18.9375 0 34.347656-15.40625 34.347656-34.347656v-68.394531c0-18.9375-15.40625-34.347657-34.347656-34.347657h-68.394532c-18.941406 0-34.347656 15.410157-34.347656 34.347657v19.199218h-165.136718v-38.546875c0-8.285156-6.714844-15-15-15-8.285157 0-15 6.714844-15 15v107.089844c0 8.285156 6.714843 15 15 15 8.285156 0 15-6.714844 15-15v-38.542969h165.136718v19.195313c0 18.941406 15.40625 34.347656 34.347656 34.347656h19.195313v168.535156h-38.542969c-8.285156 0-15 6.71875-15 15 0 8.285157 6.714844 15 15 15h107.089844c8.285156 0 15-6.714843 15-15 0-8.28125-6.714844-15-15-15h-38.546875v-168.535156zm-72.742188-34.347656v-68.394531c0-2.394532 1.949219-4.347657 4.347656-4.347657h68.394532c2.398437 0 4.347656 1.949219 4.347656 4.347657v68.394531c0 2.398437-1.949219 4.347656-4.347656 4.347656h-68.394532c-2.398437 0-4.347656-1.949219-4.347656-4.347656zm0 0" fill="#02B2EE"/></svg>