<svg id="Capa_1" data-name="Capa 1" xmlns="http://www.w3.org/2000/svg" viewBox="0 0 511.95 90.51"><defs><style>.cls-1{fill:#ffec00;}</style></defs><polygon class="cls-1" points="47.36 6.22 60.01 31.84 88.29 35.94 67.83 55.82 72.65 83.98 47.36 70.69 22.14 83.98 26.96 55.82 6.49 35.94 34.71 31.84 47.36 6.22"/><path class="cls-1" d="M72.65,90.5a6.54,6.54,0,0,1-3-.75L47.4,78.05,25.18,89.75a6.51,6.51,0,0,1-9.46-6.87L20,58.11,2,40.62a6.52,6.52,0,0,1,3.6-11.13l24.83-3.61L41.55,3.34c2.19-4.45,9.49-4.45,11.68,0L64.37,25.88l24.89,3.61a6.52,6.52,0,0,1,3.61,11.13l-18,17.49,4.24,24.77a6.55,6.55,0,0,1-2.61,6.38A6.64,6.64,0,0,1,72.65,90.5ZM47.36,64.17a6.38,6.38,0,0,1,3,.75L64,72.07,61.39,56.93a6.52,6.52,0,0,1,1.88-5.77l11-10.67-15.2-2.23a6.51,6.51,0,0,1-4.91-3.57l-6.8-13.78-6.8,13.78a6.53,6.53,0,0,1-4.9,3.57l-15.13,2.2,11,10.65a6.53,6.53,0,0,1,1.88,5.79L30.82,72l13.53-7.13A6.29,6.29,0,0,1,47.36,64.17Z" transform="translate(0 0)"/><polygon class="cls-1" points="151.65 6.22 164.3 31.84 192.58 35.94 172.12 55.82 176.94 83.98 151.65 70.69 126.43 83.98 131.25 55.82 110.78 35.94 139.01 31.84 151.65 6.22"/><path class="cls-1" d="M177,90.5a6.54,6.54,0,0,1-3-.75l-22.25-11.7-22.19,11.7a6.52,6.52,0,0,1-9.47-6.87l4.25-24.77-18-17.49A6.54,6.54,0,0,1,110,29.49l24.83-3.61L145.9,3.34c2.19-4.45,9.49-4.45,11.68,0l11.14,22.54,24.89,3.61a6.52,6.52,0,0,1,3.61,11.13l-18,17.49,4.24,24.77a6.55,6.55,0,0,1-2.59,6.38A6.62,6.62,0,0,1,177,90.5ZM151.69,64.17a6.38,6.38,0,0,1,3,.75l13.61,7.15-2.6-15.14a6.51,6.51,0,0,1,1.89-5.77l11-10.67-15.23-2.23a6.51,6.51,0,0,1-4.91-3.57l-6.8-13.77-6.8,13.77A6.5,6.5,0,0,1,140,38.26l-15.13,2.2,11,10.65a6.53,6.53,0,0,1,1.88,5.79L135.14,72l13.53-7.13a6.53,6.53,0,0,1,3-.71Z" transform="translate(0 0)"/><polygon class="cls-1" points="255.94 6.22 268.59 31.84 296.87 35.94 276.41 55.82 281.23 83.98 255.94 70.69 230.72 83.98 235.54 55.82 215.07 35.94 243.3 31.84 255.94 6.22"/><path class="cls-1" d="M230.72,90.5A6.52,6.52,0,0,1,224.2,84a7,7,0,0,1,.1-1.12l4.24-24.77-18-17.49a6.52,6.52,0,0,1,3.6-11.13L239,25.88,250.12,3.34c2.19-4.45,9.49-4.45,11.68,0L273,25.88l24.89,3.61a6.52,6.52,0,0,1,3.61,11.13l-18,17.49,4.24,24.77a6.5,6.5,0,0,1-9.45,6.87L256,78.05l-22.19,11.7A6.57,6.57,0,0,1,230.72,90.5ZM256,64.17a6.38,6.38,0,0,1,3,.75l13.61,7.15L270,56.93a6.49,6.49,0,0,1,1.87-5.77l11-10.67-15.2-2.23a6.53,6.53,0,0,1-4.9-3.57L256,21l-6.8,13.77a6.53,6.53,0,0,1-4.9,3.57l-15.13,2.2,11,10.65A6.56,6.56,0,0,1,242,57l-2.59,15L253,64.91A6.4,6.4,0,0,1,256,64.17Z" transform="translate(0 0)"/><polygon class="cls-1" points="360.23 6.22 372.88 31.84 401.17 35.94 380.7 55.82 385.52 83.98 360.23 70.69 335.01 83.98 339.83 55.82 319.36 35.94 347.59 31.84 360.23 6.22"/><path class="cls-1" d="M335,90.5a6.52,6.52,0,0,1-6.52-6.5,7,7,0,0,1,.1-1.12l4.23-24.77-18-17.49a6.53,6.53,0,0,1,3.61-11.13l24.84-3.61L354.36,3.34c2.19-4.45,9.5-4.45,11.69,0l11.13,22.55,24.9,3.61a6.52,6.52,0,0,1,3.61,11.12l-18,17.5L392,82.89a6.52,6.52,0,0,1-9.45,6.87l-22.26-11.7-22.18,11.7A6.72,6.72,0,0,1,335,90.5ZM360.2,64.17a6.38,6.38,0,0,1,3,.75l13.61,7.15-2.59-15.14a6.52,6.52,0,0,1,1.88-5.77l11-10.67L372,38.26a6.52,6.52,0,0,1-4.91-3.57l-6.8-13.78-6.8,13.78a6.49,6.49,0,0,1-4.91,3.56l-15.12,2.2,11,10.66a6.5,6.5,0,0,1,1.87,5.78L343.73,72l13.52-7.13a6.52,6.52,0,0,1,3-.7Z" transform="translate(0 0)"/><polygon class="cls-1" points="464.52 6.22 477.17 31.84 505.46 35.94 484.99 55.82 489.81 83.98 464.52 70.69 439.3 83.98 444.12 55.82 423.65 35.94 451.88 31.84 464.52 6.22"/><path class="cls-1" d="M439.3,90.5a6.52,6.52,0,0,1-6.52-6.5,7,7,0,0,1,.1-1.12l4.23-24.77-18-17.49a6.53,6.53,0,0,1,3.61-11.13l24.84-3.61L458.68,3.34c2.19-4.45,9.5-4.45,11.69,0L481.5,25.89l24.9,3.61A6.52,6.52,0,0,1,510,40.62l-18,17.5,4.24,24.77a6.52,6.52,0,0,1-9.45,6.87l-22.26-11.7-22.18,11.7A6.68,6.68,0,0,1,439.3,90.5Zm25.22-26.33a6.38,6.38,0,0,1,3,.75l13.61,7.15-2.59-15.14a6.52,6.52,0,0,1,1.88-5.77l11-10.67-15.18-2.23a6.52,6.52,0,0,1-4.91-3.57l-6.8-13.78-6.8,13.78a6.49,6.49,0,0,1-4.91,3.56l-15.12,2.2,11,10.66a6.5,6.5,0,0,1,1.87,5.78L448,72l13.52-7.13A6.6,6.6,0,0,1,464.52,64.17Z" transform="translate(0 0)"/></svg>