<?xml version="1.0" encoding="utf-8"?>
<!-- Generator: Adobe Illustrator 24.0.2, SVG Export Plug-In . SVG Version: 6.00 Build 0)  -->
<svg version="1.1" id="Capa_1" xmlns="http://www.w3.org/2000/svg" xmlns:xlink="http://www.w3.org/1999/xlink" x="0px" y="0px"
	 viewBox="0 0 512 512" style="enable-background:new 0 0 512 512;" xml:space="preserve">
<style type="text/css">
	.st0{fill:#B7E183;}
	.st1{fill:#71DE56;}
</style>
<g>
	<path class="st0" d="M502.9,75.5c-12.2-12.2-32-12.2-44.2,0L163.9,370.3L53.3,259.7c-12.2-12.2-32-12.2-44.2,0
		c-12.2,12.2-12.2,32,0,44.2l132.7,132.7c12.2,12.2,32,12.2,44.2,0l316.9-316.9C515,107.5,515,87.6,502.9,75.5z"/>
	<path class="st1" d="M502.9,75.5c-12.2-12.2-32-12.2-44.2,0L243.5,290.7V379l259.4-259.4C515,107.5,515,87.6,502.9,75.5z"/>
</g>
</svg>
